<svg version="1.1" viewBox="0.0 0.0 529.8241469816273 203.50918635170603" fill="none" stroke="none" stroke-linecap="square" stroke-miterlimit="10" xmlns:xlink="http://www.w3.org/1999/xlink" xmlns="http://www.w3.org/2000/svg"><clipPath id="p.0"><path d="m0 0l529.82416 0l0 203.50919l-529.82416 0l0 -203.50919z" clip-rule="nonzero"/></clipPath><g clip-path="url(#p.0)"><path fill="#ffffff" d="m0 0l529.82416 0l0 203.50919l-529.82416 0z" fill-rule="evenodd"/><path fill="#000000" fill-opacity="0.0" d="m84.62394 128.9704l73.66929 0l0 45.259842l-73.66929 0z" fill-rule="evenodd"/><path fill="#000000" d="m96.202065 156.74478q0.765625 0 1.140625 0.5625q0.375 0.5625 0.375 1.59375q0 1.0 -0.421875 1.609375q-0.40625 0.59375 -1.171875 0.59375q-0.375 0 -0.6875 -0.15625q-0.296875 -0.15625 -0.5 -0.421875l0 2.0625l-0.46875 0.0625l0 -5.828125l0.40625 0l0.03125 0.609375q0.234375 -0.328125 0.5625 -0.5q0.34375 -0.1875 0.734375 -0.1875zm-0.15625 3.96875q0.5625 0 0.859375 -0.453125q0.3125 -0.46875 0.3125 -1.359375q0 -1.78125 -1.109375 -1.78125q-0.375 0 -0.65625 0.203125q-0.265625 0.1875 -0.515625 0.515625l0 2.234375q0.421875 0.640625 1.109375 0.640625z" fill-rule="nonzero"/><path fill="#000000" d="m99.81875 162.4479l-0.359375 0q-0.328125 0 -0.5 0.421875l-0.203125 0q0.21875 -0.703125 0.46875 -0.921875q0.265625 -0.21875 0.96875 -0.21875q0.34375 0 1.0 0.03125q0.65625 0.03125 0.984375 0.03125q0.3125 0 0.390625 -0.234375l0.203125 0q-0.1875 0.890625 -1.0 0.890625l-0.484375 1.6875q-0.09375 0.3125 -0.09375 0.359375q0 0.203125 0.21875 0.203125q0.09375 0 0.171875 -0.046875q0.09375 -0.0625 0.140625 -0.125q0.0625 -0.0625 0.109375 -0.1875q0.0625 -0.125 0.078125 -0.171875q0.03125 -0.0625 0.0625 -0.1875l0.171875 0.078125q-0.3125 1.046875 -1.203125 1.046875q-0.359375 0 -0.484375 -0.109375q-0.125 -0.125 -0.125 -0.390625q0 -0.21875 0.078125 -0.46875q0.40625 -1.375 0.484375 -1.6875l-0.828125 0l-0.515625 1.703125q-0.0625 0.1875 -0.125 0.328125q-0.046875 0.125 -0.171875 0.28125q-0.109375 0.15625 -0.3125 0.25q-0.1875 0.078125 -0.4375 0.078125q-0.21875 0 -0.375 -0.140625q-0.15625 -0.140625 -0.15625 -0.296875q0 -0.1875 0.109375 -0.28125q0.09375 -0.09375 0.234375 -0.09375q0.1875 0 0.328125 0.1875q0.015625 0.015625 0.03125 0.046875q0.015625 0.03125 0.03125 0.0625q0.03125 0.015625 0.0625 0.03125q0.03125 0.015625 0.0625 0.03125q0.03125 0.015625 0.078125 0.015625q0.078125 0 0.140625 -0.046875q0.0625 -0.0625 0.09375 -0.109375q0.046875 -0.0625 0.09375 -0.171875q0.046875 -0.125 0.0625 -0.171875q0.015625 -0.046875 0.046875 -0.171875l0.46875 -1.53125z" fill-rule="nonzero"/><path fill="#000000" fill-opacity="0.0" d="m76.22135 0.19109607l49.07086 0l0 29.070868l-49.07086 0z" fill-rule="evenodd"/><path fill="#000000" d="m87.5026 12.605472q0.359375 0 0.640625 0.09375q0.28125 0.09375 0.546875 0.328125l-0.234375 0.296875q-0.203125 -0.171875 -0.4375 -0.25q-0.21875 -0.078125 -0.5 -0.078125q-0.578125 0 -0.9375 0.46875q-0.34375 0.453125 -0.34375 1.328125q0 0.875 0.34375 1.328124q0.34375 0.4375 0.9375 0.4375q0.28125 0 0.5 -0.09375q0.234375 -0.09375 0.46875 -0.265625l0.21875 0.3125q-0.53125 0.453125 -1.203125 0.453125q-0.53125 0 -0.9375 -0.25q-0.390625 -0.265625 -0.609375 -0.74999905q-0.21875 -0.484375 -0.21875 -1.15625q0 -0.671875 0.21875 -1.171875q0.21875 -0.5 0.609375 -0.765625q0.40625 -0.265625 0.9375 -0.265625zm4.8438263 3.34375q0 0.32812405 0.078125 0.46874905q0.078125 0.140625 0.265625 0.21875l-0.09375 0.328125q-0.296875 -0.0625 -0.453125 -0.21875q-0.15625 -0.15625 -0.203125 -0.484375q-0.4375 0.703125 -1.296875 0.703125q-0.609375 0 -0.953125 -0.34375q-0.34375 -0.34375 -0.34375 -0.90624905q0 -0.65625 0.453125 -1.0q0.46875 -0.359375 1.28125 -0.359375l0.796875 0l0 -0.40625q0 -0.5 -0.234375 -0.71875q-0.21875 -0.234375 -0.734375 -0.234375q-0.484375 0 -1.140625 0.234375l-0.109375 -0.34375q0.703125 -0.28125 1.3125 -0.28125q1.375 0 1.375 1.328125l0 2.015625zm-1.625 0.64062405q0.75 0 1.15625 -0.74999905l0 -1.140625l-0.734375 0q-0.640625 0 -0.984375 0.25q-0.328125 0.234375 -0.328125 0.734375q0 0.43749905 0.234375 0.67187405q0.234375 0.234375 0.65625 0.234375zm7.3816986 -3.984374q0.515625 0 0.796875 0.34375q0.296875 0.34375 0.296875 0.9375l0 2.984374l-0.46875 0l0 -2.921874q0 -0.5 -0.1875 -0.734375q-0.1875 -0.234375 -0.515625 -0.234375q-0.359375 0 -0.640625 0.21875q-0.28125 0.21875 -0.546875 0.640625l0 3.031249l-0.453125 0l0 -2.921874q0 -0.5 -0.1875 -0.734375q-0.1875 -0.234375 -0.53125 -0.234375q-0.359375 0 -0.640625 0.21875q-0.28125 0.21875 -0.53125 0.640625l0 3.031249l-0.46875 0l0 -4.187499l0.40625 0l0.03125 0.71875q0.25 -0.375 0.578125 -0.578125q0.328125 -0.21875 0.71875 -0.21875q0.390625 0 0.65625 0.21875q0.28125 0.21875 0.375 0.609375q0.25 -0.390625 0.578125 -0.609375q0.34375 -0.21875 0.734375 -0.21875z" fill-rule="nonzero"/><path fill="#000000" d="m100.880165 19.777346q0 0.359375 -0.078125 0.5625q-0.078125 0.21875 -0.234375 0.34375q-0.15625 0.140625 -0.4375 0.265625l-0.09375 -0.21875q0.203125 -0.109375 0.3125 -0.203125q0.109375 -0.09375 0.15625 -0.265625q0.0625 -0.171875 0.0625 -0.484375l0 -2.6875l0.3125 0l0 2.6875zm-0.15625 -3.921874q0.109375 0 0.171875 0.0625q0.0625 0.0625 0.0625 0.17187405q0 0.09375 -0.0625 0.15625q-0.0625 0.0625 -0.171875 0.0625q-0.109375 0 -0.171875 -0.0625q-0.0625 -0.0625 -0.0625 -0.15625q0 -0.10937405 0.0625 -0.17187405q0.0625 -0.0625 0.171875 -0.0625z" fill-rule="nonzero"/><path fill="#000000" fill-opacity="0.0" d="m369.27963 104.43259l49.070892 0l0 29.070877l-49.070892 0z" fill-rule="evenodd"/><path fill="#000000" d="m380.56088 116.84696q0.359375 0 0.640625 0.09375q0.28125 0.09375 0.546875 0.328125l-0.234375 0.296875q-0.203125 -0.171875 -0.4375 -0.25q-0.21875 -0.078125 -0.5 -0.078125q-0.578125 0 -0.9375 0.46875q-0.34375 0.453125 -0.34375 1.328125q0 0.875 0.34375 1.328125q0.34375 0.4375 0.9375 0.4375q0.28125 0 0.5 -0.09375q0.234375 -0.09375 0.46875 -0.265625l0.21875 0.3125q-0.53125 0.453125 -1.203125 0.453125q-0.53125 0 -0.9375 -0.25q-0.390625 -0.265625 -0.609375 -0.75q-0.21875 -0.484375 -0.21875 -1.15625q0 -0.671875 0.21875 -1.171875q0.21875 -0.5 0.609375 -0.765625q0.40625 -0.265625 0.9375 -0.265625zm4.8438416 3.34375q0 0.328125 0.078125 0.46875q0.078125 0.140625 0.265625 0.21875l-0.09375 0.328125q-0.296875 -0.0625 -0.453125 -0.21875q-0.15625 -0.15625 -0.203125 -0.484375q-0.4375 0.703125 -1.296875 0.703125q-0.609375 0 -0.953125 -0.34375q-0.34375 -0.34375 -0.34375 -0.90625q0 -0.65625 0.453125 -1.0q0.46875 -0.359375 1.28125 -0.359375l0.796875 0l0 -0.40625q0 -0.5 -0.234375 -0.71875q-0.21875 -0.234375 -0.734375 -0.234375q-0.484375 0 -1.140625 0.234375l-0.109375 -0.34375q0.703125 -0.28125 1.3125 -0.28125q1.375 0 1.375 1.328125l0 2.015625zm-1.625 0.640625q0.75 0 1.15625 -0.75l0 -1.140625l-0.734375 0q-0.640625 0 -0.984375 0.25q-0.328125 0.234375 -0.328125 0.734375q0 0.4375 0.234375 0.671875q0.234375 0.234375 0.65625 0.234375zm7.3816833 -3.984375q0.515625 0 0.796875 0.34375q0.296875 0.34375 0.296875 0.9375l0 2.984375l-0.46875 0l0 -2.921875q0 -0.5 -0.1875 -0.734375q-0.1875 -0.234375 -0.515625 -0.234375q-0.359375 0 -0.640625 0.21875q-0.28125 0.21875 -0.546875 0.640625l0 3.03125l-0.453125 0l0 -2.921875q0 -0.5 -0.1875 -0.734375q-0.1875 -0.234375 -0.53125 -0.234375q-0.359375 0 -0.640625 0.21875q-0.28125 0.21875 -0.53125 0.640625l0 3.03125l-0.46875 0l0 -4.1875l0.40625 0l0.03125 0.71875q0.25 -0.375 0.578125 -0.578125q0.328125 -0.21875 0.71875 -0.21875q0.390625 0 0.65625 0.21875q0.28125 0.21875 0.375 0.609375q0.25 -0.390625 0.578125 -0.609375q0.34375 -0.21875 0.734375 -0.21875z" fill-rule="nonzero"/><path fill="#000000" d="m393.93845 121.33134l0 2.78125l-0.3125 0l0 -2.78125l0.3125 0zm-0.15625 -1.234375q0.109375 0 0.171875 0.0625q0.0625 0.0625 0.0625 0.171875q0 0.09375 -0.0625 0.15625q-0.0625 0.0625 -0.171875 0.0625q-0.109375 0 -0.171875 -0.0625q-0.0625 -0.0625 -0.0625 -0.15625q0 -0.109375 0.0625 -0.171875q0.0625 -0.0625 0.171875 -0.0625z" fill-rule="nonzero"/><path fill="#000000" fill-opacity="0.0" d="m266.2429 154.636l258.07877 0" fill-rule="evenodd"/><path stroke="#4a86e8" stroke-width="1.0" stroke-linejoin="round" stroke-linecap="butt" d="m266.2429 154.636l258.07877 0" fill-rule="evenodd"/><path fill="#000000" fill-opacity="0.0" d="m377.37106 130.1648l-94.64566 -29.22834" fill-rule="evenodd"/><path stroke="#000000" stroke-width="1.0" stroke-linejoin="round" stroke-linecap="butt" d="m377.37106 130.1648l-94.64566 -29.22834" fill-rule="evenodd"/><path fill="#000000" fill-opacity="0.0" d="m372.35532 128.6661l91.433075 27.118118" fill-rule="evenodd"/><path stroke="#000000" stroke-width="1.0" stroke-linejoin="round" stroke-linecap="butt" stroke-dasharray="4.0,3.0" d="m372.35532 128.6661l91.433075 27.118118" fill-rule="evenodd"/><path fill="#9900ff" d="m372.35703 129.21275l0 0c0 -2.0786743 1.6851196 -3.7637787 3.763794 -3.7637787l0 0c0.99819946 0 1.9555359 0.3965454 2.6614075 1.1023865c0.70584106 0.7058487 1.102356 1.6631775 1.102356 2.6613922l0 0c0 2.0786743 -1.6850891 3.7637787 -3.7637634 3.7637787l0 0c-2.0786743 0 -3.763794 -1.6851044 -3.763794 -3.7637787z" fill-rule="evenodd"/><path fill="#ff9900" d="m334.48175 25.076948l0 0c0 -2.0786781 1.6850891 -3.7637806 3.7637634 -3.7637806l0 0c0.99823 0 1.9555664 0.3965397 2.6614075 1.1023865c0.70584106 0.7058449 1.1023865 1.6631775 1.1023865 2.6613941l0 0c0 2.0786762 -1.6851196 3.7637787 -3.763794 3.7637787l0 0c-2.0786743 0 -3.7637634 -1.6851025 -3.7637634 -3.7637787z" fill-rule="evenodd"/><path fill="#000000" fill-opacity="0.0" d="m358.02725 168.08868l-11.685059 -63.65354" fill-rule="evenodd"/><path stroke="#9900ff" stroke-width="1.0" stroke-linejoin="round" stroke-linecap="butt" d="m358.02725 168.08868l-11.685059 -63.65354" fill-rule="evenodd"/><path fill="#000000" fill-opacity="0.0" d="m305.88333 47.630753l64.724396 0" fill-rule="evenodd"/><path stroke="#ff9900" stroke-width="1.0" stroke-linejoin="round" stroke-linecap="butt" d="m305.88333 47.630753l64.724396 0" fill-rule="evenodd"/><path fill="#000000" fill-opacity="0.0" d="m462.70218 155.83282l-121.79526 -128.09448" fill-rule="evenodd"/><path stroke="#000000" stroke-width="1.0" stroke-linejoin="round" stroke-linecap="butt" stroke-dasharray="4.0,3.0" d="m462.70218 155.83282l-121.79526 -128.09448" fill-rule="evenodd"/><path fill="#000000" fill-opacity="0.0" d="m332.22134 0.3978475l49.07086 0l0 29.070866l-49.07086 0z" fill-rule="evenodd"/><path fill="#000000" d="m343.5026 12.8122225q0.359375 0 0.640625 0.09375q0.28125 0.09375 0.546875 0.328125l-0.234375 0.296875q-0.203125 -0.171875 -0.4375 -0.25q-0.21875 -0.078125 -0.5 -0.078125q-0.578125 0 -0.9375 0.46875q-0.34375 0.453125 -0.34375 1.328125q0 0.875 0.34375 1.328126q0.34375 0.4375 0.9375 0.4375q0.28125 0 0.5 -0.09375q0.234375 -0.09375 0.46875 -0.265625l0.21875 0.3125q-0.53125 0.453125 -1.203125 0.453125q-0.53125 0 -0.9375 -0.25q-0.390625 -0.265625 -0.609375 -0.75q-0.21875 -0.48437595 -0.21875 -1.156251q0 -0.671875 0.21875 -1.171875q0.21875 -0.5 0.609375 -0.765625q0.40625 -0.265625 0.9375 -0.265625zm4.8438416 3.343751q0 0.328125 0.078125 0.46875q0.078125 0.140625 0.265625 0.21875l-0.09375 0.328125q-0.296875 -0.0625 -0.453125 -0.21875q-0.15625 -0.15625 -0.203125 -0.484375q-0.4375 0.703125 -1.296875 0.703125q-0.609375 0 -0.953125 -0.34375q-0.34375 -0.34375 -0.34375 -0.90625095q0 -0.65625 0.453125 -1.0q0.46875 -0.359375 1.28125 -0.359375l0.796875 0l0 -0.40625q0 -0.5 -0.234375 -0.71875q-0.21875 -0.234375 -0.734375 -0.234375q-0.484375 0 -1.140625 0.234375l-0.109375 -0.34375q0.703125 -0.28125 1.3125 -0.28125q1.375 0 1.375 1.328125l0 2.015626zm-1.625 0.640625q0.75 0 1.15625 -0.75l0 -1.140626l-0.734375 0q-0.640625 0 -0.984375 0.25q-0.328125 0.234375 -0.328125 0.734375q0 0.43750095 0.234375 0.67187595q0.234375 0.234375 0.65625 0.234375zm7.3816833 -3.984376q0.515625 0 0.796875 0.34375q0.296875 0.34375 0.296875 0.9375l0 2.984376l-0.46875 0l0 -2.921876q0 -0.5 -0.1875 -0.734375q-0.1875 -0.234375 -0.515625 -0.234375q-0.359375 0 -0.640625 0.21875q-0.28125 0.21875 -0.546875 0.640625l0 3.031251l-0.453125 0l0 -2.921876q0 -0.5 -0.1875 -0.734375q-0.1875 -0.234375 -0.53125 -0.234375q-0.359375 0 -0.640625 0.21875q-0.28125 0.21875 -0.53125 0.640625l0 3.031251l-0.46875 0l0 -4.187501l0.40625 0l0.03125 0.71875q0.25 -0.375 0.578125 -0.578125q0.328125 -0.21875 0.71875 -0.21875q0.390625 0 0.65625 0.21875q0.28125 0.21875 0.375 0.609375q0.25 -0.390625 0.578125 -0.609375q0.34375 -0.21875 0.734375 -0.21875z" fill-rule="nonzero"/><path fill="#000000" d="m356.88016 19.984098q0 0.359375 -0.078125 0.5625q-0.078125 0.21875 -0.234375 0.34375q-0.15625 0.140625 -0.4375 0.265625l-0.09375 -0.21875q0.203125 -0.109375 0.3125 -0.203125q0.109375 -0.09375 0.15625 -0.265625q0.0625 -0.171875 0.0625 -0.484375l0 -2.6875l0.3125 0l0 2.6875zm-0.15625 -3.921875q0.109375 0 0.171875 0.0625q0.0625 0.0625 0.0625 0.171875q0 0.09375 -0.0625 0.15625q-0.0625 0.0625 -0.171875 0.0625q-0.109375 0 -0.171875 -0.0625q-0.0625 -0.0625 -0.0625 -0.15625q0 -0.109375 0.0625 -0.171875q0.0625 -0.0625 0.171875 -0.0625z" fill-rule="nonzero"/><path fill="#000000" fill-opacity="0.0" d="m454.7127 115.26592l73.66931 0l0 45.25985l-73.66931 0z" fill-rule="evenodd"/><path fill="#000000" d="m466.29083 143.0403q0.765625 0 1.140625 0.5625q0.375 0.5625 0.375 1.59375q0 1.0 -0.421875 1.609375q-0.40625 0.59375 -1.171875 0.59375q-0.375 0 -0.6875 -0.15625q-0.296875 -0.15625 -0.5 -0.421875l0 2.0625l-0.46875 0.0625l0 -5.828125l0.40625 0l0.03125 0.609375q0.234375 -0.328125 0.5625 -0.5q0.34375 -0.1875 0.734375 -0.1875zm-0.15625 3.96875q0.5625 0 0.859375 -0.453125q0.3125 -0.46875 0.3125 -1.359375q0 -1.78125 -1.109375 -1.78125q-0.375 0 -0.65625 0.203125q-0.265625 0.1875 -0.515625 0.515625l0 2.234375q0.421875 0.640625 1.109375 0.640625z" fill-rule="nonzero"/><path fill="#000000" d="m469.90753 148.74342l-0.359375 0q-0.328125 0 -0.5 0.421875l-0.203125 0q0.21875 -0.703125 0.46875 -0.921875q0.265625 -0.21875 0.96875 -0.21875q0.34375 0 1.0 0.03125q0.65625 0.03125 0.984375 0.03125q0.3125 0 0.390625 -0.234375l0.203125 0q-0.1875 0.890625 -1.0 0.890625l-0.484375 1.6875q-0.09375 0.3125 -0.09375 0.359375q0 0.203125 0.21875 0.203125q0.09375 0 0.171875 -0.046875q0.09375 -0.0625 0.140625 -0.125q0.0625 -0.0625 0.109375 -0.1875q0.0625 -0.125 0.078125 -0.171875q0.03125 -0.0625 0.0625 -0.1875l0.171875 0.078125q-0.3125 1.046875 -1.203125 1.046875q-0.359375 0 -0.484375 -0.109375q-0.125 -0.125 -0.125 -0.390625q0 -0.21875 0.078125 -0.46875q0.40625 -1.375 0.484375 -1.6875l-0.828125 0l-0.515625 1.703125q-0.0625 0.1875 -0.125 0.328125q-0.046875 0.125 -0.171875 0.28125q-0.109375 0.15625 -0.3125 0.25q-0.1875 0.078125 -0.4375 0.078125q-0.21875 0 -0.375 -0.140625q-0.15625 -0.140625 -0.15625 -0.296875q0 -0.1875 0.109375 -0.28125q0.09375 -0.09375 0.234375 -0.09375q0.1875 0 0.328125 0.1875q0.015625 0.015625 0.03125 0.046875q0.015625 0.03125 0.03125 0.0625q0.03125 0.015625 0.0625 0.03125q0.03125 0.015625 0.0625 0.03125q0.03125 0.015625 0.078125 0.015625q0.078125 0 0.140625 -0.046875q0.0625 -0.0625 0.09375 -0.109375q0.046875 -0.0625 0.09375 -0.171875q0.046875 -0.125 0.0625 -0.171875q0.015625 -0.046875 0.046875 -0.171875l0.46875 -1.53125z" fill-rule="nonzero"/><path fill="#000000" fill-opacity="0.0" d="m256.78247 143.95625l24.188995 0l0 29.070862l-24.188995 0z" fill-rule="evenodd"/><path fill="#000000" d="m267.53247 157.76126l-0.40625 0q-0.375 0 -0.578125 0.453125l-0.21875 0q0.234375 -0.78125 0.53125 -1.03125q0.296875 -0.25 1.09375 -0.25q0.375 0 1.109375 0.046875q0.75 0.046875 1.125 0.046875q0.34375 0 0.4375 -0.28125l0.21875 0q-0.203125 1.015625 -1.125 1.015625l-0.546875 1.890625q-0.09375 0.359375 -0.09375 0.40625q0 0.21875 0.234375 0.21875q0.109375 0 0.203125 -0.0625q0.09375 -0.0625 0.15625 -0.125q0.0625 -0.078125 0.125 -0.203125q0.0625 -0.140625 0.078125 -0.203125q0.03125 -0.078125 0.078125 -0.203125l0.203125 0.09375q-0.375 1.171875 -1.375 1.171875q-0.40625 0 -0.546875 -0.125q-0.125 -0.140625 -0.125 -0.4375q0 -0.265625 0.078125 -0.53125q0.46875 -1.546875 0.546875 -1.890625l-0.9375 0l-0.578125 1.90625q-0.0625 0.203125 -0.140625 0.359375q-0.0625 0.140625 -0.1875 0.328125q-0.125 0.171875 -0.34375 0.265625q-0.21875 0.09375 -0.5 0.09375q-0.234375 0 -0.40625 -0.15625q-0.1875 -0.15625 -0.1875 -0.328125q0 -0.203125 0.109375 -0.3125q0.109375 -0.109375 0.265625 -0.109375q0.21875 0 0.375 0.203125q0.015625 0.03125 0.03125 0.0625q0.03125 0.03125 0.046875 0.0625q0.03125 0.03125 0.0625 0.046875q0.03125 0.015625 0.0625 0.03125q0.046875 0.015625 0.09375 0.015625q0.078125 0 0.15625 -0.046875q0.078125 -0.0625 0.125 -0.125q0.046875 -0.0625 0.09375 -0.1875q0.046875 -0.140625 0.0625 -0.1875q0.015625 -0.0625 0.0625 -0.203125l0.53125 -1.71875z" fill-rule="nonzero"/><path fill="#000000" fill-opacity="0.0" d="m340.97726 95.914986l34.519684 0l0 32.314964l-34.519684 0z" fill-rule="evenodd"/><path fill="#000000" d="m352.5554 110.889366q0.765625 0 1.140625 0.5625q0.375 0.5625 0.375 1.59375q0 1.0 -0.421875 1.609375q-0.40625 0.59375 -1.171875 0.59375q-0.375 0 -0.6875 -0.15625q-0.296875 -0.15625 -0.5 -0.421875l0 2.0625l-0.46875 0.0625l0 -5.828125l0.40625 0l0.03125 0.609375q0.234375 -0.328125 0.5625 -0.5q0.34375 -0.1875 0.734375 -0.1875zm-0.15625 3.96875q0.5625 0 0.859375 -0.453125q0.3125 -0.46875 0.3125 -1.359375q0 -1.78125 -1.109375 -1.78125q-0.375 0 -0.65625 0.203125q-0.265625 0.1875 -0.515625 0.515625l0 2.234375q0.421875 0.640625 1.109375 0.640625z" fill-rule="nonzero"/><path fill="#000000" d="m355.7971 115.43624l0 3.71875l-0.421875 0l0 -3.71875l0.421875 0zm-0.21875 -1.640625q0.140625 0 0.21875 0.09375q0.09375 0.078125 0.09375 0.203125q0 0.140625 -0.09375 0.234375q-0.078125 0.078125 -0.21875 0.078125q-0.125 0 -0.21875 -0.078125q-0.078125 -0.09375 -0.078125 -0.234375q0 -0.125 0.078125 -0.203125q0.09375 -0.09375 0.21875 -0.09375z" fill-rule="nonzero"/><path fill="#9900ff" d="m348.0989 121.33425l0 0c0 -0.7305832 0.59225464 -1.3228378 1.322815 -1.3228378l0 0c0.3508606 0 0.6873169 0.13937378 0.9353943 0.38745117c0.2480774 0.2480774 0.38745117 0.58454895 0.38745117 0.93538666l0 0c0 0.7305832 -0.59225464 1.3228378 -1.3228455 1.3228378l0 0c-0.7305603 0 -1.322815 -0.59225464 -1.322815 -1.3228378z" fill-rule="evenodd"/><path fill="#ff9900" d="m358.57135 47.629528l0 0c0 -0.7305832 0.59225464 -1.322834 1.322815 -1.322834l0 0c0.35083008 0 0.6873169 0.13936615 0.9353943 0.38744736c0.2480774 0.2480812 0.38745117 0.58454895 0.38745117 0.93538666l0 0c0 0.7305794 -0.59225464 1.322834 -1.3228455 1.322834l0 0c-0.7305603 0 -1.322815 -0.59225464 -1.322815 -1.322834z" fill-rule="evenodd"/><path fill="#000000" fill-opacity="0.0" d="m352.41296 25.481918l34.519684 0l0 32.31496l-34.519684 0z" fill-rule="evenodd"/><path fill="#000000" d="m363.9911 40.456295q0.765625 0 1.140625 0.5625q0.375 0.5625 0.375 1.59375q0 1.0 -0.421875 1.609375q-0.40625 0.59375 -1.171875 0.59375q-0.375 0 -0.6875 -0.15625q-0.296875 -0.15625 -0.5 -0.421875l0 2.0625l-0.46875 0.0625l0 -5.828125l0.40625 0l0.03125 0.609375q0.234375 -0.328125 0.5625 -0.5q0.34375 -0.1875 0.734375 -0.1875zm-0.15625 3.96875q0.5625 0 0.859375 -0.453125q0.3125 -0.46875 0.3125 -1.359375q0 -1.78125 -1.109375 -1.78125q-0.375 0 -0.65625 0.203125q-0.265625 0.1875 -0.515625 0.515625l0 2.234375q0.421875 0.640625 1.109375 0.640625z" fill-rule="nonzero"/><path fill="#000000" d="m367.2328 48.581295q0 0.484375 -0.109375 0.765625q-0.109375 0.296875 -0.3125 0.46875q-0.203125 0.171875 -0.59375 0.34375l-0.109375 -0.296875q0.265625 -0.125 0.40625 -0.265625q0.15625 -0.125 0.21875 -0.359375q0.078125 -0.234375 0.078125 -0.640625l0 -3.59375l0.421875 0l0 3.578125zm-0.21875 -5.21875q0.140625 0 0.21875 0.09375q0.09375 0.078125 0.09375 0.203125q0 0.140625 -0.09375 0.234375q-0.078125 0.078125 -0.21875 0.078125q-0.125 0 -0.21875 -0.078125q-0.078125 -0.09375 -0.078125 -0.234375q0 -0.125 0.078125 -0.203125q0.09375 -0.09375 0.21875 -0.09375z" fill-rule="nonzero"/><path fill="#4a86e8" d="m458.996 154.63596l0 0c0 -1.0262909 0.8319702 -1.8582611 1.8582764 -1.8582611l0 0c0.49282837 0 0.9654846 0.19578552 1.3139954 0.54426575c0.34848022 0.34849548 0.544281 0.82115173 0.544281 1.3139954l0 0c0 1.0262909 -0.8319702 1.8582764 -1.8582764 1.8582764l0 0c-1.0263062 0 -1.8582764 -0.8319855 -1.8582764 -1.8582764z" fill-rule="evenodd"/><path fill="#000000" fill-opacity="0.0" d="m189.78096 26.714931l49.07086 0l0 29.070866l-49.07086 0z" fill-rule="evenodd"/><path fill="#000000" d="m201.06221 39.129307q0.359375 0 0.640625 0.09375q0.28125 0.09375 0.546875 0.328125l-0.234375 0.296875q-0.203125 -0.171875 -0.4375 -0.25q-0.21875 -0.078125 -0.5 -0.078125q-0.578125 0 -0.9375 0.46875q-0.34375 0.453125 -0.34375 1.328125q0 0.875 0.34375 1.328125q0.34375 0.4375 0.9375 0.4375q0.28125 0 0.5 -0.09375q0.234375 -0.09375 0.46875 -0.265625l0.21875 0.3125q-0.53125 0.453125 -1.203125 0.453125q-0.53125 0 -0.9375 -0.25q-0.390625 -0.265625 -0.609375 -0.75q-0.21875 -0.484375 -0.21875 -1.15625q0 -0.671875 0.21875 -1.171875q0.21875 -0.5 0.609375 -0.765625q0.40625 -0.265625 0.9375 -0.265625zm4.8438263 3.34375q0 0.328125 0.078125 0.46875q0.078125 0.140625 0.265625 0.21875l-0.09375 0.328125q-0.296875 -0.0625 -0.453125 -0.21875q-0.15625 -0.15625 -0.203125 -0.484375q-0.4375 0.703125 -1.296875 0.703125q-0.609375 0 -0.953125 -0.34375q-0.34375 -0.34375 -0.34375 -0.90625q0 -0.65625 0.453125 -1.0q0.46875 -0.359375 1.28125 -0.359375l0.796875 0l0 -0.40625q0 -0.5 -0.234375 -0.71875q-0.21875 -0.234375 -0.734375 -0.234375q-0.484375 0 -1.140625 0.234375l-0.109375 -0.34375q0.703125 -0.28125 1.3125 -0.28125q1.375 0 1.375 1.328125l0 2.015625zm-1.625 0.640625q0.75 0 1.15625 -0.75l0 -1.140625l-0.734375 0q-0.640625 0 -0.984375 0.25q-0.328125 0.234375 -0.328125 0.734375q0 0.4375 0.234375 0.671875q0.234375 0.234375 0.65625 0.234375zm7.3816986 -3.984375q0.515625 0 0.796875 0.34375q0.296875 0.34375 0.296875 0.9375l0 2.984375l-0.46875 0l0 -2.921875q0 -0.5 -0.1875 -0.734375q-0.1875 -0.234375 -0.515625 -0.234375q-0.359375 0 -0.640625 0.21875q-0.28125 0.21875 -0.546875 0.640625l0 3.03125l-0.453125 0l0 -2.921875q0 -0.5 -0.1875 -0.734375q-0.1875 -0.234375 -0.53125 -0.234375q-0.359375 0 -0.640625 0.21875q-0.28125 0.21875 -0.53125 0.640625l0 3.03125l-0.46875 0l0 -4.1875l0.40625 0l0.03125 0.71875q0.25 -0.375 0.578125 -0.578125q0.328125 -0.21875 0.71875 -0.21875q0.390625 0 0.65625 0.21875q0.28125 0.21875 0.375 0.609375q0.25 -0.390625 0.578125 -0.609375q0.34375 -0.21875 0.734375 -0.21875z" fill-rule="nonzero"/><path fill="#000000" d="m214.43977 43.61368l0 2.78125l-0.3125 0l0 -2.78125l0.3125 0zm-0.15625 -1.234375q0.109375 0 0.171875 0.0625q0.0625 0.0625 0.0625 0.171875q0 0.09375 -0.0625 0.15625q-0.0625 0.0625 -0.171875 0.0625q-0.109375 0 -0.171875 -0.0625q-0.0625 -0.0625 -0.0625 -0.15625q0 -0.109375 0.0625 -0.171875q0.0625 -0.0625 0.171875 -0.0625z" fill-rule="nonzero"/><path fill="#000000" fill-opacity="0.0" d="m10.242899 154.42924l206.20471 0" fill-rule="evenodd"/><path stroke="#4a86e8" stroke-width="1.0" stroke-linejoin="round" stroke-linecap="butt" d="m10.242899 154.42924l206.20471 0" fill-rule="evenodd"/><path fill="#9900ff" d="m191.18643 48.588684l0 0c0 -2.0786781 1.6851044 -3.7637825 3.7637787 -3.7637825l0 0c0.9982147 0 1.9555511 0.3965416 2.6613922 1.1023865c0.7058563 0.7058449 1.1023865 1.6631775 1.1023865 2.661396l0 0c0 2.0786781 -1.6851044 3.7637787 -3.7637787 3.7637787l0 0c-2.0786743 0 -3.7637787 -1.6851006 -3.7637787 -3.7637787z" fill-rule="evenodd"/><path fill="#ff9900" d="m78.48174 24.870195l0 0c0 -2.0786781 1.6851044 -3.7637787 3.7637787 -3.7637787l0 0c0.99822235 0 1.9555511 0.3965397 2.6613998 1.1023846c0.70584106 0.7058468 1.1023788 1.6631775 1.1023788 2.6613941l0 0c0 2.0786781 -1.6850967 3.7637806 -3.7637787 3.7637806l0 0c-2.0786743 0 -3.7637787 -1.6851025 -3.7637787 -3.7637806z" fill-rule="evenodd"/><path fill="#000000" fill-opacity="0.0" d="m185.83826 99.47248l-41.417313 -44.566925" fill-rule="evenodd"/><path stroke="#9900ff" stroke-width="1.0" stroke-linejoin="round" stroke-linecap="butt" d="m185.83826 99.47248l-41.417313 -44.566925" fill-rule="evenodd"/><path fill="#000000" fill-opacity="0.0" d="m49.88332 47.424l64.72441 0" fill-rule="evenodd"/><path stroke="#ff9900" stroke-width="1.0" stroke-linejoin="round" stroke-linecap="butt" d="m49.88332 47.424l64.72441 0" fill-rule="evenodd"/><path fill="#000000" fill-opacity="0.0" d="m0.78247666 143.74951l24.188976 0l0 29.070862l-24.188976 0z" fill-rule="evenodd"/><path fill="#000000" d="m11.532476 157.5545l-0.40625 0q-0.375 0 -0.578125 0.453125l-0.21875 0q0.234375 -0.78125 0.53125 -1.03125q0.296875 -0.25 1.09375 -0.25q0.375 0 1.109375 0.046875q0.75 0.046875 1.125 0.046875q0.34375 0 0.4375 -0.28125l0.21875 0q-0.203125 1.015625 -1.125 1.015625l-0.546875 1.890625q-0.09375 0.359375 -0.09375 0.40625q0 0.21875 0.234375 0.21875q0.109375 0 0.203125 -0.0625q0.09375 -0.0625 0.15625 -0.125q0.0625 -0.078125 0.125 -0.203125q0.0625 -0.140625 0.078125 -0.203125q0.03125 -0.078125 0.078125 -0.203125l0.203125 0.09375q-0.375 1.171875 -1.375 1.171875q-0.40625 0 -0.546875 -0.125q-0.125 -0.140625 -0.125 -0.4375q0 -0.265625 0.078125 -0.53125q0.46875 -1.546875 0.546875 -1.890625l-0.9375 0l-0.578125 1.90625q-0.0625 0.203125 -0.140625 0.359375q-0.0625 0.140625 -0.1875 0.328125q-0.125 0.171875 -0.34375 0.265625q-0.21875 0.09375 -0.5 0.09375q-0.234375 0 -0.40625 -0.15625q-0.1875 -0.15625 -0.1875 -0.328125q0 -0.203125 0.109375 -0.3125q0.109375 -0.109375 0.265625 -0.109375q0.21875 0 0.375 0.203125q0.015625 0.03125 0.03125 0.0625q0.03125 0.03125 0.046875 0.0625q0.03125 0.03125 0.0625 0.046875q0.03125 0.015625 0.0625 0.03125q0.046875 0.015625 0.09375 0.015625q0.078125 0 0.15625 -0.046875q0.078125 -0.0625 0.125 -0.125q0.046875 -0.0625 0.09375 -0.1875q0.046875 -0.140625 0.0625 -0.1875q0.015625 -0.0625 0.0625 -0.203125l0.53125 -1.71875z" fill-rule="nonzero"/><path fill="#4a86e8" d="m90.99601 154.42921l0 0c0 -1.0262909 0.83197784 -1.8582764 1.8582687 -1.8582764l0 0c0.49284363 0 0.9654999 0.19578552 1.3139954 0.544281c0.34848785 0.34849548 0.5442734 0.82115173 0.5442734 1.3139954l0 0c0 1.0262909 -0.83197784 1.8582611 -1.8582687 1.8582611l0 0c-1.0262909 0 -1.8582687 -0.8319702 -1.8582687 -1.8582611z" fill-rule="evenodd"/><path fill="#000000" fill-opacity="0.0" d="m192.28882 51.250076l-98.11024 101.85826" fill-rule="evenodd"/><path stroke="#000000" stroke-width="1.0" stroke-linejoin="round" stroke-linecap="butt" d="m192.28882 51.250076l-98.11024 101.85826" fill-rule="evenodd"/><path fill="#000000" fill-opacity="0.0" d="m92.85428 152.57094l-10.614174 -123.937004" fill-rule="evenodd"/><path stroke="#000000" stroke-width="1.0" stroke-linejoin="round" stroke-linecap="butt" d="m92.85428 152.57094l-10.614174 -123.937004" fill-rule="evenodd"/><path fill="#000000" fill-opacity="0.0" d="m160.60176 60.367706l34.519684 0l0 32.314964l-34.519684 0z" fill-rule="evenodd"/><path fill="#000000" d="m172.17989 75.34208q0.765625 0 1.140625 0.5625q0.375 0.5625 0.375 1.59375q0 1.0 -0.421875 1.609375q-0.40625 0.59375 -1.171875 0.59375q-0.375 0 -0.6875 -0.15625q-0.296875 -0.15625 -0.5 -0.421875l0 2.0625l-0.46875 0.0625l0 -5.828125l0.40625 0l0.03125 0.609375q0.234375 -0.328125 0.5625 -0.5q0.34375 -0.1875 0.734375 -0.1875zm-0.15625 3.96875q0.5625 0 0.859375 -0.453125q0.3125 -0.46875 0.3125 -1.359375q0 -1.78125 -1.109375 -1.78125q-0.375 0 -0.65625 0.203125q-0.265625 0.1875 -0.515625 0.515625l0 2.234375q0.421875 0.640625 1.109375 0.640625z" fill-rule="nonzero"/><path fill="#000000" d="m175.42157 79.888954l0 3.71875l-0.421875 0l0 -3.71875l0.421875 0zm-0.21875 -1.640625q0.140625 0 0.21875 0.09375q0.09375 0.078125 0.09375 0.203125q0 0.140625 -0.09375 0.234375q-0.078125 0.078125 -0.21875 0.078125q-0.125 0 -0.21875 -0.078125q-0.078125 -0.09375 -0.078125 -0.234375q0 -0.125 0.078125 -0.203125q0.09375 -0.09375 0.21875 -0.09375z" fill-rule="nonzero"/><path fill="#9900ff" d="m164.9757 78.42303l0 0c0 -0.7305832 0.59225464 -1.3228302 1.3228302 -1.3228302l0 0c0.35084534 0 0.6873169 0.13936615 0.9353943 0.38744354c0.2480774 0.24808502 0.38745117 0.58454895 0.38745117 0.93538666l0 0c0 0.7305832 -0.59225464 1.3228378 -1.3228455 1.3228378l0 0c-0.73057556 0 -1.3228302 -0.59225464 -1.3228302 -1.3228378z" fill-rule="evenodd"/><path fill="#000000" fill-opacity="0.0" d="m65.931496 20.515905l34.519684 0l0 29.070868l-34.519684 0z" fill-rule="evenodd"/><path fill="#000000" d="m77.50962 32.930283q0.765625 0 1.140625 0.5625q0.375 0.5625 0.375 1.59375q0 1.0 -0.421875 1.609375q-0.40625 0.59375 -1.171875 0.59375q-0.375 0 -0.6875 -0.15625q-0.296875 -0.15625 -0.5 -0.421875l0 2.0625l-0.46875 0.0625l0 -5.828125l0.40625 0l0.03125 0.609375q0.234375 -0.328125 0.5625 -0.5q0.34375 -0.1875 0.734375 -0.1875zm-0.15625 3.96875q0.5625 0 0.859375 -0.453125q0.3125 -0.46875 0.3125 -1.359375q0 -1.78125 -1.109375 -1.78125q-0.375 0 -0.65625 0.203125q-0.265625 0.1875 -0.515625 0.515625l0 2.234375q0.421875 0.640625 1.109375 0.640625z" fill-rule="nonzero"/><path fill="#000000" d="m80.45443 40.102158q0 0.359375 -0.078125 0.5625q-0.078125 0.21875 -0.234375 0.34375q-0.15625 0.140625 -0.4375 0.265625l-0.09375 -0.21875q0.203125 -0.109375 0.3125 -0.203125q0.109375 -0.09375 0.15625 -0.265625q0.0625 -0.171875 0.0625 -0.484375l0 -2.6875l0.3125 0l0 2.6875zm-0.15625 -3.921875q0.109375 0 0.171875 0.0625q0.0625 0.0625 0.0625 0.171875q0 0.09375 -0.0625 0.15625q-0.0625 0.0625 -0.171875 0.0625q-0.109375 0 -0.171875 -0.0625q-0.0625 -0.0625 -0.0625 -0.15625q0 -0.109375 0.0625 -0.171875q0.0625 -0.0625 0.171875 -0.0625z" fill-rule="nonzero"/><path fill="#ff9900" d="m82.636154 47.422775l0 0c0 -0.7305832 0.59225464 -1.322834 1.3228378 -1.322834l0 0c0.3508377 0 0.68730164 0.13936996 0.935379 0.38744736c0.24808502 0.2480812 0.38745117 0.58454895 0.38745117 0.93538666l0 0c0 0.7305832 -0.59225464 1.322834 -1.3228302 1.322834l0 0c-0.7305832 0 -1.3228378 -0.5922508 -1.3228378 -1.322834z" fill-rule="evenodd"/><path fill="#000000" fill-opacity="0.0" d="m88.80983 175.13225l49.07086 0l0 33.921265l-49.07086 0z" fill-rule="evenodd"/><path fill="#000000" d="m109.47558 185.90225q-0.625 0.9375 -1.015625 1.6875q-0.375 0.734375 -0.609375 1.6875q-0.234375 0.9375 -0.234375 2.171875q0 1.234375 0.234375 2.1875q0.234375 0.953125 0.609375 1.6875q0.390625 0.734375 1.015625 1.6875l-0.4375 0.28125q-0.75 -1.046875 -1.171875 -1.78125q-0.421875 -0.75 -0.703125 -1.734375q-0.28125 -1.0 -0.28125 -2.328125q0 -1.3125 0.28125 -2.3125q0.28125 -1.0 0.703125 -1.734375q0.421875 -0.75 1.171875 -1.796875l0.4375 0.296875zm5.825531 8.359375q0 0.484375 0.125 0.703125q0.125 0.21875 0.40625 0.328125l-0.15625 0.484375q-0.4375 -0.078125 -0.671875 -0.3125q-0.234375 -0.25 -0.296875 -0.734375q-0.65625 1.046875 -1.96875 1.046875q-0.890625 0 -1.421875 -0.5q-0.515625 -0.515625 -0.515625 -1.359375q0 -0.984375 0.6875 -1.5q0.6875 -0.53125 1.921875 -0.53125l1.1875 0l0 -0.609375q0 -0.765625 -0.34375 -1.09375q-0.328125 -0.34375 -1.09375 -0.34375q-0.734375 0 -1.71875 0.359375l-0.171875 -0.53125q1.0625 -0.421875 1.984375 -0.421875q2.046875 0 2.046875 1.984375l0 3.03125zm-2.4375 0.953125q1.125 0 1.734375 -1.09375l0 -1.734375l-1.078125 0q-0.96875 0 -1.46875 0.375q-0.5 0.375 -0.5 1.109375q0 0.65625 0.34375 1.0q0.34375 0.34375 0.96875 0.34375zm4.7914276 -9.609375q0.75 1.046875 1.171875 1.796875q0.421875 0.734375 0.6875 1.734375q0.28125 1.0 0.28125 2.3125q0 1.328125 -0.28125 2.328125q-0.265625 0.984375 -0.6875 1.734375q-0.421875 0.734375 -1.171875 1.78125l-0.453125 -0.28125q0.640625 -0.953125 1.015625 -1.6875q0.390625 -0.734375 0.625 -1.6875q0.234375 -0.953125 0.234375 -2.1875q0 -1.234375 -0.234375 -2.171875q-0.234375 -0.953125 -0.625 -1.6875q-0.375 -0.75 -1.015625 -1.6875l0.453125 -0.296875z" fill-rule="nonzero"/><path fill="#000000" fill-opacity="0.0" d="m370.74683 175.13225l49.07086 0l0 33.921265l-49.07086 0z" fill-rule="evenodd"/><path fill="#000000" d="m391.14258 185.90225q-0.625 0.9375 -1.015625 1.6875q-0.375 0.734375 -0.609375 1.6875q-0.234375 0.9375 -0.234375 2.171875q0 1.234375 0.234375 2.1875q0.234375 0.953125 0.609375 1.6875q0.390625 0.734375 1.015625 1.6875l-0.4375 0.28125q-0.75 -1.046875 -1.171875 -1.78125q-0.421875 -0.75 -0.703125 -1.734375q-0.28125 -1.0 -0.28125 -2.328125q0 -1.3125 0.28125 -2.3125q0.28125 -1.0 0.703125 -1.734375q0.421875 -0.75 1.171875 -1.796875l0.4375 0.296875zm4.513031 3.34375q1.078125 0 1.671875 0.84375q0.609375 0.828125 0.609375 2.390625q0 1.53125 -0.625 2.421875q-0.625 0.875 -1.765625 0.875q-0.5625 0 -1.03125 -0.25q-0.453125 -0.25 -0.765625 -0.671875l-0.0625 0.796875l-0.625 0l0 -8.828125l0.703125 -0.09375l0 3.515625q0.75 -1.0 1.890625 -1.0zm-0.234375 5.96875q0.84375 0 1.3125 -0.6875q0.46875 -0.703125 0.46875 -2.046875q0 -2.65625 -1.703125 -2.65625q-0.5625 0 -0.96875 0.28125q-0.40625 0.28125 -0.765625 0.796875l0 3.296875q0.296875 0.46875 0.71875 0.75q0.421875 0.265625 0.9375 0.265625zm4.440796 -9.609375q0.75 1.046875 1.171875 1.796875q0.421875 0.734375 0.6875 1.734375q0.28125 1.0 0.28125 2.3125q0 1.328125 -0.28125 2.328125q-0.265625 0.984375 -0.6875 1.734375q-0.421875 0.734375 -1.171875 1.78125l-0.453125 -0.28125q0.640625 -0.953125 1.015625 -1.6875q0.390625 -0.734375 0.625 -1.6875q0.234375 -0.953125 0.234375 -2.1875q0 -1.234375 -0.234375 -2.171875q-0.234375 -0.953125 -0.625 -1.6875q-0.375 -0.75 -1.015625 -1.6875l0.453125 -0.296875z" fill-rule="nonzero"/></g></svg>